<svg xmlns="http://www.w3.org/2000/svg" viewBox="0 0 90.62 114.49"><defs><style>.cls-1{fill:#f7ab8f;}.cls-2{fill:#f17344;}.cls-3{fill:#b55633;opacity:0.5;}.cls-4{fill:#fff;}.cls-5{fill:#f6f6f6;}.cls-6{fill:#ededed;}.cls-7{fill:#fdf6f6;}.cls-8{fill:#ebebeb;}.cls-9{fill:#ebe6e6;}.cls-10{fill:#efebeb;}.cls-11{fill:#f3f0f0;}.cls-12{fill:#95c11f;}</style></defs><title>Asset 9</title><g id="Layer_2" data-name="Layer 2"><g id="Objects"><path class="cls-1" d="M90.62,82.49c0,16.57-21.44,32-38,32H38c-16.57,0-38-15.43-38-32V28C0,11.43,23.43,0,40,0H50.62c16.56,0,40,11.43,40,28Z"/><path class="cls-2" d="M50.62,0H40C23.43,0,0,11.43,0,28V82.49c0,16.57,21.43,32,38,32H52.62c16.56,0,38-15.43,38-32V28C90.62,11.43,67.18,0,50.62,0ZM69.06,46.44c3.15-.07,7-1,10,0,2.59.9,4.31,2.94,6.74,4.1,1.17.55.15,2.28-1,1.72-2.69-1.27-4.59-4-7.77-4.15-2.67-.11-5.31.23-8,.29A1,1,0,0,1,69.06,46.44ZM77.8,98.8c-4.62-3.47-11.92.6-16.67,2.1-5,1.56-10.82,3-16,2.08-3.69-.65-6.54-2.43-10-3.63a37.16,37.16,0,0,0-9.84-1.55c-5.3-.37-10-1.4-14.44-4.5-1.05-.73-.05-2.46,1-1.72,6.38,4.47,12.71,3.22,19.84,4.74,6.45,1.38,11.75,5.52,18.66,4.81,6.42-.66,11.92-3.22,18.08-4.74,3.47-.86,7.36-1.62,10.42.69C79.83,97.84,78.83,99.58,77.8,98.8Zm5.89-12.6c-5-6.83-16.41-4-23.16-2.1-8,2.24-13.41,1.66-21.17-1.14a50.74,50.74,0,0,0-15.51-2.73c-3.32-.13-6.87.07-10.12-.8C9.14,78.2,3.85,75.85,2.84,70.71c-.24-1.26,1.68-1.8,1.93-.53C6.55,79.27,20.43,77.87,27,78.4a43.19,43.19,0,0,1,11.23,2c4.41,1.59,8.75,3.8,13.6,3.39,10-.83,25.76-9.3,33.56,1.36C86.18,86.23,84.45,87.23,83.69,86.2Zm2.24-20.88c-8-8.75-23.53,4.69-32.06,6.4-3.26.66-6.67.45-9-2.08a16,16,0,0,0-10.16-5.1C22.19,62.61,3.8,64.76,3.64,47.28a1,1,0,0,1,2,0C5.81,65.9,29.15,59.45,40.93,64.15c3.51,1.4,5.58,5.94,9.51,5.83,6.55-.17,11.27-3.72,17-6.19,6-2.59,14.72-5.55,19.89.11C88.22,64.85,86.8,66.27,85.93,65.32Z"/><path class="cls-3" d="M50.62,0c16.56,0,40,11.43,40,28V82.49c0,16.57-21.44,32-38,32"/><path class="cls-4" d="M83.81,31.44c0,13.26-17.8,24-31.11,24H37.92c-13.32,0-31.11-10.74-31.11-24h0c0-13.25,17.79-24,31.11-24H52.7c13.31,0,31.11,10.75,31.11,24Z"/><path class="cls-5" d="M32.31,14.61a5.06,5.06,0,0,0,5-5,5,5,0,1,0-10,0,5.08,5.08,0,0,0,5,5Z"/><path class="cls-5" d="M64,56.94a5,5,0,1,0-5-5,5.05,5.05,0,0,0,5,5Z"/><path class="cls-5" d="M11.31,46.61a5,5,0,0,0,0-10,5,5,0,0,0,0,10Z"/><path class="cls-5" d="M75.31,22.61a5,5,0,1,0-5-5,5.06,5.06,0,0,0,5,5Z"/><path class="cls-5" d="M21,29.94a5,5,0,1,0-5-5,5.05,5.05,0,0,0,5,5Z"/><path class="cls-5" d="M73.31,40.28a5,5,0,1,0-5-5,5.06,5.06,0,0,0,5,5Z"/><path class="cls-5" d="M37.64,51.61a5,5,0,1,0-5-5,5.05,5.05,0,0,0,5,5Z"/><path class="cls-5" d="M53.64,18.28a5.05,5.05,0,0,0,5-5,5,5,0,0,0-10,0,5.09,5.09,0,0,0,5,5Z"/><path class="cls-6" d="M9.64,40.28a5,5,0,0,0,0-10,5,5,0,0,0,0,10Z"/><path class="cls-6" d="M43,56.94a5,5,0,1,0-5-5,5.05,5.05,0,0,0,5,5Z"/><path class="cls-6" d="M74.64,46.94a5,5,0,1,0-5-5,5.05,5.05,0,0,0,5,5Z"/><path class="cls-6" d="M67.64,17.61a5.05,5.05,0,0,0,5-5,5,5,0,0,0-10,0,5.09,5.09,0,0,0,5,5Z"/><path class="cls-6" d="M43.64,20.94a5,5,0,1,0-5-5,5.05,5.05,0,0,0,5,5Z"/><path class="cls-6" d="M67.64,35.61a5,5,0,1,0-5-5,5.05,5.05,0,0,0,5,5Z"/><path class="cls-6" d="M36.64,19.61a5,5,0,1,0-5-5,5.05,5.05,0,0,0,5,5Z"/><path class="cls-6" d="M31.64,45.94a5,5,0,1,0-5-5,5.05,5.05,0,0,0,5,5Z"/><path class="cls-6" d="M59,51.28a5,5,0,1,0-5-5,5.05,5.05,0,0,0,5,5Z"/><path class="cls-6" d="M26.31,29.28a5,5,0,1,0-5-5,5.06,5.06,0,0,0,5,5Z"/><path class="cls-5" d="M18.64,18.94a5.05,5.05,0,0,0,5-5,5,5,0,1,0-10,0,5.09,5.09,0,0,0,5,5Z"/><path class="cls-5" d="M61,32.61a5,5,0,1,0-5-5,5.05,5.05,0,0,0,5,5Z"/><path class="cls-5" d="M54.64,45.61a5,5,0,1,0-5-5,5.05,5.05,0,0,0,5,5Z"/><path class="cls-5" d="M34.31,40.61a5,5,0,1,0-5-5,5.06,5.06,0,0,0,5,5Z"/><path class="cls-5" d="M32.31,26.61a5,5,0,1,0-5-5,5.06,5.06,0,0,0,5,5Z"/><path class="cls-5" d="M41.64,12.61a5.05,5.05,0,0,0,5-5,5,5,0,0,0-10,0,5.09,5.09,0,0,0,5,5Z"/><path class="cls-5" d="M23.31,46.61a5,5,0,1,0-5-5,5.06,5.06,0,0,0,5,5Z"/><path class="cls-5" d="M62,22.61a5,5,0,1,0-5-5,5.05,5.05,0,0,0,5,5Z"/><path class="cls-5" d="M14.31,24.94a5,5,0,1,0-5-5,5.06,5.06,0,0,0,5,5Z"/><path class="cls-5" d="M60.31,40.61a5,5,0,1,0-5-5,5.06,5.06,0,0,0,5,5Z"/><path class="cls-5" d="M28.64,53.94a5,5,0,1,0-5-5,5.05,5.05,0,0,0,5,5Z"/><path class="cls-5" d="M67.64,26.94a5,5,0,1,0-5-5,5.05,5.05,0,0,0,5,5Z"/><path class="cls-5" d="M31,34.28a5,5,0,1,0-5-5,5.05,5.05,0,0,0,5,5Z"/><path class="cls-5" d="M38.64,31.61a5,5,0,1,0-5-5,5.05,5.05,0,0,0,5,5Z"/><path class="cls-5" d="M59.64,14.61a5.05,5.05,0,0,0,5-5,5,5,0,0,0-10,0,5.09,5.09,0,0,0,5,5Z"/><path class="cls-7" d="M75.64,31.94a5,5,0,1,0-5-5,5.05,5.05,0,0,0,5,5Z"/><path class="cls-7" d="M26.64,39.28a5,5,0,1,0-5-5,5.05,5.05,0,0,0,5,5Z"/><path class="cls-7" d="M25.64,19.61a5,5,0,1,0-5-5,5.05,5.05,0,0,0,5,5Z"/><path class="cls-7" d="M48,13.61a5.05,5.05,0,0,0,5-5,5,5,0,0,0-10,0,5.09,5.09,0,0,0,5,5Z"/><path class="cls-7" d="M34,58.28a5,5,0,1,0-5-5,5.05,5.05,0,0,0,5,5Z"/><path class="cls-7" d="M9.31,31.94a5,5,0,0,0,0-10,5,5,0,0,0,0,10Z"/><path class="cls-7" d="M80,28.28a5,5,0,1,0-5-5,5.05,5.05,0,0,0,5,5Z"/><path class="cls-7" d="M82.31,36.61a5,5,0,1,0-5-5,5.06,5.06,0,0,0,5,5Z"/><path class="cls-7" d="M43.31,27.61a5,5,0,1,0-5-5,5.06,5.06,0,0,0,5,5Z"/><path class="cls-7" d="M50.31,23.28a5,5,0,1,0-5-5,5.06,5.06,0,0,0,5,5Z"/><path class="cls-7" d="M40.31,43.61a5,5,0,1,0-5-5,5.06,5.06,0,0,0,5,5Z"/><path class="cls-7" d="M44,50.28a5,5,0,1,0-5-5,5.05,5.05,0,0,0,5,5Z"/><path class="cls-8" d="M65.31,43.61a5,5,0,1,0-5-5,5.06,5.06,0,0,0,5,5Z"/><path class="cls-8" d="M14.64,33.61a5,5,0,1,0-5-5,5.05,5.05,0,0,0,5,5Z"/><path class="cls-8" d="M56.64,24.61a5,5,0,1,0-5-5,5.05,5.05,0,0,0,5,5Z"/><path class="cls-8" d="M22.31,52.94a5,5,0,1,0-5-5,5.06,5.06,0,0,0,5,5Z"/><path class="cls-8" d="M68,51.94a5,5,0,1,0-5-5,5.05,5.05,0,0,0,5,5Z"/><path class="cls-8" d="M80.31,42.61a5,5,0,1,0-5-5,5.06,5.06,0,0,0,5,5Z"/><path class="cls-8" d="M48,57.28a5,5,0,1,0-5-5,5.05,5.05,0,0,0,5,5Z"/><path class="cls-8" d="M55,58.28a5,5,0,1,0-5-5,5.05,5.05,0,0,0,5,5Z"/><path class="cls-8" d="M15.64,40.61a5,5,0,1,0-5-5,5.05,5.05,0,0,0,5,5Z"/><path class="cls-8" d="M22,35.28a5,5,0,1,0-5-5,5.05,5.05,0,0,0,5,5Z"/><path class="cls-8" d="M16.31,50.61a5,5,0,1,0-5-5,5.06,5.06,0,0,0,5,5Z"/><path class="cls-9" d="M51.31,29.61a5,5,0,1,0-5-5,5.06,5.06,0,0,0,5,5Z"/><path class="cls-9" d="M18.64,39.28a5,5,0,1,0-5-5,5.05,5.05,0,0,0,5,5Z"/><path class="cls-9" d="M72.31,49.61a5,5,0,1,0-5-5,5.06,5.06,0,0,0,5,5Z"/><path class="cls-9" d="M48,49.61a5,5,0,1,0-5-5,5.05,5.05,0,0,0,5,5Z"/><path class="cls-9" d="M25.64,54.61a5,5,0,1,0-5-5,5.05,5.05,0,0,0,5,5Z"/><path class="cls-10" d="M43.31,34.28a5,5,0,1,0-5-5,5.06,5.06,0,0,0,5,5Z"/><path class="cls-11" d="M49,37.61a5,5,0,1,0-5-5,5.05,5.05,0,0,0,5,5Z"/><path class="cls-11" d="M55.64,36.28a5,5,0,1,0-5-5,5.05,5.05,0,0,0,5,5Z"/><path class="cls-11" d="M46.31,42.61a5,5,0,1,0-5-5,5.06,5.06,0,0,0,5,5Z"/><path class="cls-11" d="M53.31,51.61a5,5,0,1,0-5-5,5.06,5.06,0,0,0,5,5Z"/><path class="cls-11" d="M37.31,25.94a5,5,0,1,0-5-5,5.06,5.06,0,0,0,5,5Z"/><path class="cls-12" d="M63.79,30.61c0,6.36-8.54,11.52-14.94,11.52H41.76c-6.39,0-14.93-5.16-14.93-11.52h0c0-6.36,8.54-11.52,14.93-11.52h7.09c6.4,0,14.94,5.16,14.94,11.52Z"/></g></g></svg>