<svg xmlns="http://www.w3.org/2000/svg" viewBox="0 0 90.62 114.49"><defs><style>.cls-1{fill:#313d55;}.cls-2{fill:#252e40;}.cls-3{fill:#fff;}.cls-4{fill:#f6f6f6;}.cls-5{fill:#ededed;}.cls-6{fill:#fdf6f6;}.cls-7{fill:#ebebeb;}.cls-8{fill:#ebe6e6;}.cls-9{fill:#efebeb;}.cls-10{fill:#f3f0f0;}.cls-11{fill:#f9b233;}.cls-12{fill:#95c11f;stroke:#3aaa35;stroke-linecap:round;stroke-linejoin:round;}.cls-13{fill:#fca8a4;}.cls-14{fill:#eb5c55;}</style></defs><title>Asset 6</title><g id="Layer_2" data-name="Layer 2"><g id="Objects"><path class="cls-1" d="M90.62,82.49c0,16.57-21.44,32-38,32H38c-16.57,0-38-15.43-38-32V28C0,11.43,23.43,0,40,0H50.62c16.56,0,40,11.43,40,28Z"/><path class="cls-2" d="M50.62,0c16.56,0,40,11.43,40,28V82.49c0,16.57-21.44,32-38,32"/><path class="cls-3" d="M83.81,31.44c0,13.26-17.8,24-31.11,24H37.92c-13.32,0-31.11-10.74-31.11-24h0c0-13.25,17.79-24,31.11-24H52.7c13.31,0,31.11,10.75,31.11,24Z"/><path class="cls-4" d="M32.31,14.61a5.06,5.06,0,0,0,5-5,5,5,0,1,0-10,0,5.08,5.08,0,0,0,5,5Z"/><path class="cls-4" d="M64,56.94a5,5,0,1,0-5-5,5.05,5.05,0,0,0,5,5Z"/><path class="cls-4" d="M11.31,46.61a5,5,0,0,0,0-10,5,5,0,0,0,0,10Z"/><path class="cls-4" d="M75.31,22.61a5,5,0,1,0-5-5,5.06,5.06,0,0,0,5,5Z"/><path class="cls-4" d="M21,29.94a5,5,0,1,0-5-5,5.05,5.05,0,0,0,5,5Z"/><path class="cls-4" d="M73.31,40.28a5,5,0,1,0-5-5,5.06,5.06,0,0,0,5,5Z"/><path class="cls-4" d="M37.64,51.61a5,5,0,1,0-5-5,5.05,5.05,0,0,0,5,5Z"/><path class="cls-4" d="M53.64,18.28a5.05,5.05,0,0,0,5-5,5,5,0,0,0-10,0,5.09,5.09,0,0,0,5,5Z"/><path class="cls-5" d="M9.64,40.28a5,5,0,0,0,0-10,5,5,0,0,0,0,10Z"/><path class="cls-5" d="M43,56.94a5,5,0,1,0-5-5,5.05,5.05,0,0,0,5,5Z"/><path class="cls-5" d="M74.64,46.94a5,5,0,1,0-5-5,5.05,5.05,0,0,0,5,5Z"/><path class="cls-5" d="M67.64,17.61a5.05,5.05,0,0,0,5-5,5,5,0,0,0-10,0,5.09,5.09,0,0,0,5,5Z"/><path class="cls-5" d="M43.64,20.94a5,5,0,1,0-5-5,5.05,5.05,0,0,0,5,5Z"/><path class="cls-5" d="M67.64,35.61a5,5,0,1,0-5-5,5.05,5.05,0,0,0,5,5Z"/><path class="cls-5" d="M36.64,19.61a5,5,0,1,0-5-5,5.05,5.05,0,0,0,5,5Z"/><path class="cls-5" d="M31.64,45.94a5,5,0,1,0-5-5,5.05,5.05,0,0,0,5,5Z"/><path class="cls-5" d="M59,51.28a5,5,0,1,0-5-5,5.05,5.05,0,0,0,5,5Z"/><path class="cls-5" d="M26.31,29.28a5,5,0,1,0-5-5,5.06,5.06,0,0,0,5,5Z"/><path class="cls-4" d="M18.64,18.94a5.05,5.05,0,0,0,5-5,5,5,0,1,0-10,0,5.09,5.09,0,0,0,5,5Z"/><path class="cls-4" d="M61,32.61a5,5,0,1,0-5-5,5.05,5.05,0,0,0,5,5Z"/><path class="cls-4" d="M54.64,45.61a5,5,0,1,0-5-5,5.05,5.05,0,0,0,5,5Z"/><path class="cls-4" d="M34.31,40.61a5,5,0,1,0-5-5,5.06,5.06,0,0,0,5,5Z"/><path class="cls-4" d="M32.31,26.61a5,5,0,1,0-5-5,5.06,5.06,0,0,0,5,5Z"/><path class="cls-4" d="M41.64,12.61a5.05,5.05,0,0,0,5-5,5,5,0,0,0-10,0,5.09,5.09,0,0,0,5,5Z"/><path class="cls-4" d="M23.31,46.61a5,5,0,1,0-5-5,5.06,5.06,0,0,0,5,5Z"/><path class="cls-4" d="M62,22.61a5,5,0,1,0-5-5,5.05,5.05,0,0,0,5,5Z"/><path class="cls-4" d="M14.31,24.94a5,5,0,1,0-5-5,5.06,5.06,0,0,0,5,5Z"/><path class="cls-4" d="M60.31,40.61a5,5,0,1,0-5-5,5.06,5.06,0,0,0,5,5Z"/><path class="cls-4" d="M28.64,53.94a5,5,0,1,0-5-5,5.05,5.05,0,0,0,5,5Z"/><path class="cls-4" d="M67.64,26.94a5,5,0,1,0-5-5,5.05,5.05,0,0,0,5,5Z"/><path class="cls-4" d="M31,34.28a5,5,0,1,0-5-5,5.05,5.05,0,0,0,5,5Z"/><path class="cls-4" d="M38.64,31.61a5,5,0,1,0-5-5,5.05,5.05,0,0,0,5,5Z"/><path class="cls-4" d="M59.64,14.61a5.05,5.05,0,0,0,5-5,5,5,0,0,0-10,0,5.09,5.09,0,0,0,5,5Z"/><path class="cls-6" d="M75.64,31.94a5,5,0,1,0-5-5,5.05,5.05,0,0,0,5,5Z"/><path class="cls-6" d="M26.64,39.28a5,5,0,1,0-5-5,5.05,5.05,0,0,0,5,5Z"/><path class="cls-6" d="M25.64,19.61a5,5,0,1,0-5-5,5.05,5.05,0,0,0,5,5Z"/><path class="cls-6" d="M48,13.61a5.05,5.05,0,0,0,5-5,5,5,0,0,0-10,0,5.09,5.09,0,0,0,5,5Z"/><path class="cls-6" d="M34,58.28a5,5,0,1,0-5-5,5.05,5.05,0,0,0,5,5Z"/><path class="cls-6" d="M9.31,31.94a5,5,0,0,0,0-10,5,5,0,0,0,0,10Z"/><path class="cls-6" d="M80,28.28a5,5,0,1,0-5-5,5.05,5.05,0,0,0,5,5Z"/><path class="cls-6" d="M82.31,36.61a5,5,0,1,0-5-5,5.06,5.06,0,0,0,5,5Z"/><path class="cls-6" d="M43.31,27.61a5,5,0,1,0-5-5,5.06,5.06,0,0,0,5,5Z"/><path class="cls-6" d="M50.31,23.28a5,5,0,1,0-5-5,5.06,5.06,0,0,0,5,5Z"/><path class="cls-6" d="M40.31,43.61a5,5,0,1,0-5-5,5.06,5.06,0,0,0,5,5Z"/><path class="cls-6" d="M44,50.28a5,5,0,1,0-5-5,5.05,5.05,0,0,0,5,5Z"/><path class="cls-7" d="M65.31,43.61a5,5,0,1,0-5-5,5.06,5.06,0,0,0,5,5Z"/><path class="cls-7" d="M14.64,33.61a5,5,0,1,0-5-5,5.05,5.05,0,0,0,5,5Z"/><path class="cls-7" d="M56.64,24.61a5,5,0,1,0-5-5,5.05,5.05,0,0,0,5,5Z"/><path class="cls-7" d="M22.31,52.94a5,5,0,1,0-5-5,5.06,5.06,0,0,0,5,5Z"/><path class="cls-7" d="M68,51.94a5,5,0,1,0-5-5,5.05,5.05,0,0,0,5,5Z"/><path class="cls-7" d="M80.31,42.61a5,5,0,1,0-5-5,5.06,5.06,0,0,0,5,5Z"/><path class="cls-7" d="M48,57.28a5,5,0,1,0-5-5,5.05,5.05,0,0,0,5,5Z"/><path class="cls-7" d="M55,58.28a5,5,0,1,0-5-5,5.05,5.05,0,0,0,5,5Z"/><path class="cls-7" d="M15.64,40.61a5,5,0,1,0-5-5,5.05,5.05,0,0,0,5,5Z"/><path class="cls-7" d="M22,35.28a5,5,0,1,0-5-5,5.05,5.05,0,0,0,5,5Z"/><path class="cls-7" d="M16.31,50.61a5,5,0,1,0-5-5,5.06,5.06,0,0,0,5,5Z"/><path class="cls-8" d="M51.31,29.61a5,5,0,1,0-5-5,5.06,5.06,0,0,0,5,5Z"/><path class="cls-8" d="M18.64,39.28a5,5,0,1,0-5-5,5.05,5.05,0,0,0,5,5Z"/><path class="cls-8" d="M72.31,49.61a5,5,0,1,0-5-5,5.06,5.06,0,0,0,5,5Z"/><path class="cls-8" d="M48,49.61a5,5,0,1,0-5-5,5.05,5.05,0,0,0,5,5Z"/><path class="cls-8" d="M25.64,54.61a5,5,0,1,0-5-5,5.05,5.05,0,0,0,5,5Z"/><path class="cls-9" d="M43.31,34.28a5,5,0,1,0-5-5,5.06,5.06,0,0,0,5,5Z"/><path class="cls-10" d="M49,37.61a5,5,0,1,0-5-5,5.05,5.05,0,0,0,5,5Z"/><path class="cls-10" d="M55.64,36.28a5,5,0,1,0-5-5,5.05,5.05,0,0,0,5,5Z"/><path class="cls-10" d="M46.31,42.61a5,5,0,1,0-5-5,5.06,5.06,0,0,0,5,5Z"/><path class="cls-10" d="M53.31,51.61a5,5,0,1,0-5-5,5.06,5.06,0,0,0,5,5Z"/><path class="cls-10" d="M37.31,25.94a5,5,0,1,0-5-5,5.06,5.06,0,0,0,5,5Z"/><path class="cls-11" d="M43.62,43.92a17.51,17.51,0,0,1-6.57-1.42.52.52,0,0,1-.31-.44c-.07-1.6.9-3.14,2.89-4.58a14,14,0,0,1,3.46-1.17c.79-.16,1.56-.39,2.3-.61a15.28,15.28,0,0,1,4.44-.85c.28,0,.57,0,.87,0a34.87,34.87,0,0,1,4.36.71,12.8,12.8,0,0,0,1.38.48l.67.17.31.08c2.46.95,3.74,2.23,3.86,3.82a.5.5,0,0,1-.22.45A19.06,19.06,0,0,1,51,43.92Z"/><path class="cls-11" d="M49.82,35.35a7.86,7.86,0,0,1,.83,0,33.27,33.27,0,0,1,4.29.7,10.48,10.48,0,0,0,1.37.47l1,.25c1.87.73,3.36,1.8,3.48,3.38A18.47,18.47,0,0,1,51,43.42H43.62A17.09,17.09,0,0,1,37.24,42c-.07-1.59,1.09-3,2.68-4.15a14.77,14.77,0,0,1,3.27-1.08c2.3-.48,4.3-1.45,6.63-1.45m0-1a15.64,15.64,0,0,0-4.57.87c-.74.22-1.5.44-2.26.6A15,15,0,0,0,39.49,37l-.15.09c-2.14,1.55-3.18,3.23-3.1,5a1,1,0,0,0,.62.88,17.93,17.93,0,0,0,6.76,1.46H51A19.62,19.62,0,0,0,61.34,41a1,1,0,0,0,.44-.91c-.14-1.79-1.52-3.22-4.12-4.23l-.12,0-.31-.08-.66-.17a11.72,11.72,0,0,1-1.25-.44l-.15,0a34.86,34.86,0,0,0-4.42-.73c-.31,0-.62,0-.93,0Z"/><path class="cls-12" d="M49.66,19c-1,.4-2.68-.05-1.11,5a11.86,11.86,0,0,1,.57,2.4c.25,2.37-.21,5.42,1.68,7.25s4.45,2.24,6.84,2.93c1.27.37,2.53.79,3.78,1.23,2.49-.71,2.7-3.56,2.86-5.7.48-6.6-7.9-13.78-14.62-13.08"/><path class="cls-13" d="M31.58,39.93a9.66,9.66,0,0,1-1.8-.17,1,1,0,0,1-.23-.06c-4.46-2-4.46-6.7-4.46-8.26,0-7,9.09-13,16.53-13h1.82a1.13,1.13,0,0,1,.32.05c3.12,1.07,3.49,4.35,3.84,7.53,0,.43.1.86.16,1.29a11.84,11.84,0,0,1,0,4.4C47,34.68,44.2,35.46,42.14,36l-.2.05A17.59,17.59,0,0,0,37.5,38l-.16.07c-.5.2-1,.43-1.42.66a9.13,9.13,0,0,1-4.34,1.21Z"/><path class="cls-14" d="M43.44,19.46c2.87,1,2.88,4.51,3.32,8a10.71,10.71,0,0,1,0,4c-.59,2.46-3.05,3.07-5.1,3.64a18.72,18.72,0,0,0-4.69,2c-1.89.74-3.08,1.8-5.4,1.8A10.06,10.06,0,0,1,30,38.78c-3.3-1.45-3.86-4.57-3.86-7.34,0-6.61,8.88-12,15.53-12h1.82m0-2H41.62c-7.94,0-17.53,6.24-17.53,14,0,1.72,0,7,5.06,9.17a1.88,1.88,0,0,0,.46.14,11.54,11.54,0,0,0,2,.18,9.94,9.94,0,0,0,4.78-1.32c.46-.22.88-.43,1.35-.62a1.77,1.77,0,0,0,.31-.15,17,17,0,0,1,4.18-1.79l.2,0c2.18-.6,5.47-1.51,6.32-5a12.71,12.71,0,0,0,0-4.76c-.06-.42-.1-.85-.15-1.27-.36-3.16-.8-7.09-4.51-8.36a2.06,2.06,0,0,0-.65-.11Z"/></g></g></svg>