<svg xmlns="http://www.w3.org/2000/svg" viewBox="0 0 90.62 114.49"><defs><style>.cls-1{fill:#313d55;}.cls-2{fill:#252e40;}.cls-3{fill:#eb5c55;}.cls-4{opacity:0.3;}.cls-5{fill:#b04540;}.cls-6{opacity:0.2;}.cls-7{opacity:0.5;}.cls-8{fill:#ef7d77;}.cls-9{opacity:0.8;}</style></defs><title>Asset 3</title><g id="Layer_2" data-name="Layer 2"><g id="Objects"><path class="cls-1" d="M90.62,82.49c0,16.57-21.44,32-38,32H38c-16.57,0-38-15.43-38-32V28C0,11.43,23.43,0,40,0H50.62c16.56,0,40,11.43,40,28Z"/><path class="cls-2" d="M50.62,0c16.56,0,40,11.43,40,28V82.49c0,16.57-21.44,32-38,32"/><path class="cls-3" d="M83.81,31.44c0,13.26-17.8,24-31.11,24H37.92c-13.32,0-31.11-10.74-31.11-24h0c0-13.25,17.79-24,31.11-24H52.7c13.31,0,31.11,10.75,31.11,24Z"/><path class="cls-3" d="M32.31,15.86a6.32,6.32,0,0,0,6.25-6.25,6.25,6.25,0,1,0-12.5,0,6.36,6.36,0,0,0,6.25,6.25Z"/><path class="cls-3" d="M64,58.19a6.25,6.25,0,1,0-6.25-6.25A6.32,6.32,0,0,0,64,58.19Z"/><path class="cls-3" d="M11.31,47.86a6.25,6.25,0,0,0,0-12.5,6.25,6.25,0,0,0,0,12.5Z"/><path class="cls-3" d="M75.31,23.86a6.32,6.32,0,0,0,6.25-6.25,6.25,6.25,0,0,0-12.5,0,6.36,6.36,0,0,0,6.25,6.25Z"/><path class="cls-3" d="M21,31.19a6.25,6.25,0,1,0-6.25-6.25A6.32,6.32,0,0,0,21,31.19Z"/><path class="cls-3" d="M73.31,41.53a6.25,6.25,0,1,0-6.25-6.25,6.32,6.32,0,0,0,6.25,6.25Z"/><path class="cls-3" d="M37.64,52.86a6.25,6.25,0,1,0-6.25-6.25,6.32,6.32,0,0,0,6.25,6.25Z"/><path class="cls-3" d="M53.64,19.53a6.32,6.32,0,0,0,6.25-6.25,6.25,6.25,0,0,0-12.5,0,6.36,6.36,0,0,0,6.25,6.25Z"/><path class="cls-3" d="M9.64,41.53a6.25,6.25,0,0,0,0-12.5,6.25,6.25,0,0,0,0,12.5Z"/><path class="cls-3" d="M43,58.19a6.25,6.25,0,1,0-6.25-6.25A6.32,6.32,0,0,0,43,58.19Z"/><path class="cls-3" d="M74.64,48.19a6.25,6.25,0,1,0-6.25-6.25,6.32,6.32,0,0,0,6.25,6.25Z"/><path class="cls-3" d="M67.64,18.86a6.32,6.32,0,0,0,6.25-6.25,6.25,6.25,0,0,0-12.5,0,6.36,6.36,0,0,0,6.25,6.25Z"/><path class="cls-3" d="M43.64,22.19a6.32,6.32,0,0,0,6.25-6.25,6.25,6.25,0,1,0-12.5,0,6.36,6.36,0,0,0,6.25,6.25Z"/><path class="cls-3" d="M67.64,36.86a6.25,6.25,0,1,0-6.25-6.25,6.32,6.32,0,0,0,6.25,6.25Z"/><path class="cls-3" d="M36.64,20.86a6.32,6.32,0,0,0,6.25-6.25,6.25,6.25,0,0,0-12.5,0,6.36,6.36,0,0,0,6.25,6.25Z"/><path class="cls-3" d="M31.64,47.19a6.25,6.25,0,1,0-6.25-6.25,6.32,6.32,0,0,0,6.25,6.25Z"/><path class="cls-3" d="M59,52.53a6.25,6.25,0,1,0-6.25-6.25A6.32,6.32,0,0,0,59,52.53Z"/><path class="cls-3" d="M26.31,30.53a6.25,6.25,0,1,0-6.25-6.25,6.32,6.32,0,0,0,6.25,6.25Z"/><path class="cls-3" d="M18.64,20.19a6.32,6.32,0,0,0,6.25-6.25,6.36,6.36,0,0,0-6.25-6.25,6.32,6.32,0,0,0-6.25,6.25,6.36,6.36,0,0,0,6.25,6.25Z"/><path class="cls-3" d="M61,33.86a6.25,6.25,0,1,0-6.25-6.25A6.32,6.32,0,0,0,61,33.86Z"/><path class="cls-3" d="M54.64,46.86a6.25,6.25,0,1,0-6.25-6.25,6.32,6.32,0,0,0,6.25,6.25Z"/><path class="cls-3" d="M34.31,41.86a6.25,6.25,0,1,0-6.25-6.25,6.32,6.32,0,0,0,6.25,6.25Z"/><path class="cls-3" d="M32.31,27.86a6.25,6.25,0,1,0-6.25-6.25,6.32,6.32,0,0,0,6.25,6.25Z"/><path class="cls-3" d="M41.64,13.86a6.32,6.32,0,0,0,6.25-6.25,6.25,6.25,0,0,0-12.5,0,6.36,6.36,0,0,0,6.25,6.25Z"/><path class="cls-3" d="M23.31,47.86a6.25,6.25,0,1,0-6.25-6.25,6.32,6.32,0,0,0,6.25,6.25Z"/><path class="cls-3" d="M62,23.86a6.25,6.25,0,1,0-6.25-6.25A6.32,6.32,0,0,0,62,23.86Z"/><path class="cls-3" d="M14.31,26.19a6.25,6.25,0,1,0-6.25-6.25,6.35,6.35,0,0,0,6.25,6.25Z"/><path class="cls-3" d="M60.31,41.86a6.25,6.25,0,1,0-6.25-6.25,6.32,6.32,0,0,0,6.25,6.25Z"/><path class="cls-3" d="M28.64,55.19a6.25,6.25,0,1,0-6.25-6.25,6.32,6.32,0,0,0,6.25,6.25Z"/><path class="cls-3" d="M67.64,28.19a6.25,6.25,0,1,0-6.25-6.25,6.32,6.32,0,0,0,6.25,6.25Z"/><path class="cls-3" d="M31,35.53a6.25,6.25,0,1,0-6.25-6.25A6.32,6.32,0,0,0,31,35.53Z"/><path class="cls-3" d="M38.64,32.86a6.25,6.25,0,1,0-6.25-6.25,6.32,6.32,0,0,0,6.25,6.25Z"/><path class="cls-3" d="M59.64,15.86a6.32,6.32,0,0,0,6.25-6.25,6.25,6.25,0,0,0-12.5,0,6.36,6.36,0,0,0,6.25,6.25Z"/><path class="cls-3" d="M75.64,33.19a6.25,6.25,0,1,0-6.25-6.25,6.32,6.32,0,0,0,6.25,6.25Z"/><path class="cls-3" d="M26.64,40.53a6.25,6.25,0,1,0-6.25-6.25,6.32,6.32,0,0,0,6.25,6.25Z"/><path class="cls-3" d="M25.64,20.86a6.32,6.32,0,0,0,6.25-6.25,6.25,6.25,0,0,0-12.5,0,6.36,6.36,0,0,0,6.25,6.25Z"/><path class="cls-3" d="M48,14.86a6.32,6.32,0,0,0,6.25-6.25,6.25,6.25,0,0,0-12.5,0A6.37,6.37,0,0,0,48,14.86Z"/><path class="cls-3" d="M34,59.53a6.25,6.25,0,1,0-6.25-6.25A6.32,6.32,0,0,0,34,59.53Z"/><path class="cls-3" d="M9.31,33.19a6.25,6.25,0,1,0,0-12.5,6.25,6.25,0,0,0,0,12.5Z"/><path class="cls-3" d="M80,29.53a6.25,6.25,0,1,0-6.25-6.25A6.32,6.32,0,0,0,80,29.53Z"/><path class="cls-3" d="M82.31,37.86a6.25,6.25,0,1,0-6.25-6.25,6.32,6.32,0,0,0,6.25,6.25Z"/><path class="cls-3" d="M43.31,28.86a6.25,6.25,0,1,0-6.25-6.25,6.32,6.32,0,0,0,6.25,6.25Z"/><path class="cls-3" d="M50.31,24.53a6.25,6.25,0,1,0-6.25-6.25,6.32,6.32,0,0,0,6.25,6.25Z"/><path class="cls-3" d="M40.31,44.86a6.25,6.25,0,1,0-6.25-6.25,6.32,6.32,0,0,0,6.25,6.25Z"/><path class="cls-3" d="M44,51.53a6.25,6.25,0,1,0-6.25-6.25A6.32,6.32,0,0,0,44,51.53Z"/><path class="cls-3" d="M65.31,44.86a6.25,6.25,0,1,0-6.25-6.25,6.32,6.32,0,0,0,6.25,6.25Z"/><path class="cls-3" d="M14.64,34.86a6.25,6.25,0,1,0-6.25-6.25,6.36,6.36,0,0,0,6.25,6.25Z"/><path class="cls-3" d="M56.64,25.86a6.25,6.25,0,1,0-6.25-6.25,6.32,6.32,0,0,0,6.25,6.25Z"/><path class="cls-3" d="M22.31,54.19a6.25,6.25,0,1,0-6.25-6.25,6.32,6.32,0,0,0,6.25,6.25Z"/><path class="cls-3" d="M68,53.19a6.25,6.25,0,1,0-6.25-6.25A6.32,6.32,0,0,0,68,53.19Z"/><path class="cls-3" d="M80.31,43.86a6.25,6.25,0,1,0-6.25-6.25,6.32,6.32,0,0,0,6.25,6.25Z"/><path class="cls-3" d="M48,58.53a6.25,6.25,0,1,0-6.25-6.25A6.32,6.32,0,0,0,48,58.53Z"/><path class="cls-3" d="M55,59.53a6.25,6.25,0,1,0-6.25-6.25A6.32,6.32,0,0,0,55,59.53Z"/><path class="cls-3" d="M15.64,41.86a6.25,6.25,0,1,0-6.25-6.25,6.36,6.36,0,0,0,6.25,6.25Z"/><path class="cls-3" d="M22,36.53a6.25,6.25,0,1,0-6.25-6.25A6.32,6.32,0,0,0,22,36.53Z"/><path class="cls-3" d="M16.31,51.86a6.25,6.25,0,1,0-6.25-6.25,6.36,6.36,0,0,0,6.25,6.25Z"/><path class="cls-3" d="M51.31,30.86a6.25,6.25,0,1,0-6.25-6.25,6.32,6.32,0,0,0,6.25,6.25Z"/><path class="cls-3" d="M18.64,40.53a6.25,6.25,0,1,0-6.25-6.25,6.36,6.36,0,0,0,6.25,6.25Z"/><path class="cls-3" d="M72.31,50.86a6.25,6.25,0,1,0-6.25-6.25,6.32,6.32,0,0,0,6.25,6.25Z"/><path class="cls-3" d="M48,50.86a6.25,6.25,0,1,0-6.25-6.25A6.32,6.32,0,0,0,48,50.86Z"/><path class="cls-3" d="M25.64,55.86a6.25,6.25,0,1,0-6.25-6.25,6.32,6.32,0,0,0,6.25,6.25Z"/><path class="cls-3" d="M43.31,35.53a6.25,6.25,0,1,0-6.25-6.25,6.32,6.32,0,0,0,6.25,6.25Z"/><path class="cls-3" d="M49,38.86a6.25,6.25,0,1,0-6.25-6.25A6.32,6.32,0,0,0,49,38.86Z"/><path class="cls-3" d="M55.64,37.53a6.25,6.25,0,1,0-6.25-6.25,6.32,6.32,0,0,0,6.25,6.25Z"/><path class="cls-3" d="M46.31,43.86a6.25,6.25,0,1,0-6.25-6.25,6.32,6.32,0,0,0,6.25,6.25Z"/><path class="cls-3" d="M53.31,52.86a6.25,6.25,0,1,0-6.25-6.25,6.32,6.32,0,0,0,6.25,6.25Z"/><path class="cls-3" d="M37.31,27.19a6.25,6.25,0,1,0-6.25-6.25,6.32,6.32,0,0,0,6.25,6.25Z"/><g class="cls-4"><path class="cls-5" d="M41.43,23.34c3.93,0,7.69-3.44,7.5-7.5a7.63,7.63,0,0,0-7.5-7.5c-3.92,0-7.68,3.45-7.5,7.5a7.63,7.63,0,0,0,7.5,7.5Z"/></g><g class="cls-6"><path class="cls-5" d="M61.82,41.79c3.93,0,7.68-3.45,7.5-7.5a7.63,7.63,0,0,0-7.5-7.5c-3.92,0-7.68,3.45-7.5,7.5a7.63,7.63,0,0,0,7.5,7.5Z"/></g><g class="cls-6"><path class="cls-5" d="M28.81,40.82c3.93,0,7.68-3.45,7.5-7.5a7.63,7.63,0,0,0-7.5-7.5c-3.92,0-7.68,3.45-7.5,7.5a7.63,7.63,0,0,0,7.5,7.5Z"/></g><g class="cls-7"><path class="cls-8" d="M26.81,25.29c3.93,0,7.68-3.45,7.5-7.5a7.62,7.62,0,0,0-7.5-7.5c-3.92,0-7.68,3.45-7.5,7.5a7.63,7.63,0,0,0,7.5,7.5Z"/></g><g class="cls-7"><path class="cls-8" d="M75.62,35.91c3.92,0,7.68-3.45,7.5-7.5a7.63,7.63,0,0,0-7.5-7.5c-3.92,0-7.68,3.45-7.5,7.5a7.63,7.63,0,0,0,7.5,7.5Z"/></g><g class="cls-7"><path class="cls-8" d="M36.7,54.44c3.92,0,7.68-3.45,7.5-7.5a7.64,7.64,0,0,0-7.5-7.5c-3.93,0-7.69,3.45-7.5,7.5a7.63,7.63,0,0,0,7.5,7.5Z"/></g><g class="cls-9"><path class="cls-8" d="M56.05,19.46c3.93,0,7.69-3.45,7.5-7.5a7.63,7.63,0,0,0-7.5-7.5c-3.92,0-7.68,3.45-7.5,7.5a7.64,7.64,0,0,0,7.5,7.5Z"/></g><path class="cls-8" d="M46.37,38.88c3.93,0,7.69-3.45,7.5-7.5a7.62,7.62,0,0,0-7.5-7.5c-3.92,0-7.68,3.45-7.5,7.5a7.64,7.64,0,0,0,7.5,7.5Z"/><g class="cls-9"><path class="cls-8" d="M14.25,37.91c3.92,0,7.68-3.45,7.5-7.5a7.63,7.63,0,0,0-7.5-7.5c-3.92,0-7.68,3.45-7.5,7.5a7.63,7.63,0,0,0,7.5,7.5Z"/></g><g class="cls-9"><path class="cls-8" d="M59.94,55.38c3.92,0,7.68-3.45,7.5-7.5a7.63,7.63,0,0,0-7.5-7.5c-3.92,0-7.68,3.45-7.5,7.5a7.62,7.62,0,0,0,7.5,7.5Z"/></g></g></g></svg>