<svg xmlns="http://www.w3.org/2000/svg" viewBox="0 0 99.54 96.95"><defs><style>.cls-1{fill:#96c03e;}.cls-2{fill:#f6f6f6;}.cls-3{fill:#5a6477;}.cls-4{fill:#f8c4c2;}.cls-5{fill:#f39d99;}.cls-6{fill:#f48572;}.cls-7{fill:#f9c817;}.cls-8{fill:#ebebeb;}.cls-9{fill:#ebe6e6;}.cls-10{fill:#fdf6f6;}.cls-11{fill:#fff;}</style></defs><title>Asset 1</title><g id="Layer_2" data-name="Layer 2"><g id="Objects"><rect class="cls-1" width="99.54" height="96.95" rx="30.14"/><rect class="cls-2" x="7.46" y="7.27" width="84.61" height="82.41" rx="25.62"/><path class="cls-3" d="M59.11,25.4A14.35,14.35,0,0,1,73.46,39.75V57.2A14.35,14.35,0,0,1,59.11,71.55H40.42A14.34,14.34,0,0,1,26.08,57.2V39.75A14.34,14.34,0,0,1,40.42,25.4H59.11m0-3H40.42A17.36,17.36,0,0,0,23.08,39.75V57.2A17.36,17.36,0,0,0,40.42,74.55H59.11A17.37,17.37,0,0,0,76.46,57.2V39.75A17.37,17.37,0,0,0,59.11,22.4Z"/><path class="cls-4" d="M46.43,47.73c5.77-1.85,2.71-16.56,1.76-22.33H40.42A14.34,14.34,0,0,0,26.08,39.75V48.2C32.67,48.44,40.18,49.74,46.43,47.73Z"/><path class="cls-5" d="M49.28,32.17c-.36-2.66-.82-5.09-1.09-6.77H40.42a14.09,14.09,0,0,0-2.53.24Q43.67,28.78,49.28,32.17Z"/><path class="cls-5" d="M49.84,39.46a45.62,45.62,0,0,0-.25-4.76c-4.73-2.91-9.56-5.65-14.46-8.28a14.15,14.15,0,0,0-4.28,2.67A207.71,207.71,0,0,0,49.84,39.46Z"/><path class="cls-5" d="M26.15,38.37a12.5,12.5,0,0,0-.07,1.38V48.2c5.15.19,10.86,1,16.09.41C36.83,45.19,30.81,42.61,26.15,38.37Z"/><path class="cls-5" d="M29.43,30.56a14.28,14.28,0,0,0-2.87,5.5c5.1,5.22,12.5,7.88,18.45,12.06.48-.11,1-.24,1.42-.39,2.1-.67,3-3.07,3.31-6.11A208.73,208.73,0,0,1,29.43,30.56Z"/><path class="cls-6" d="M59.11,25.4H50.17a107.75,107.75,0,0,1,1.24,13c.05,2.54.41,6.58-1.13,9A141.71,141.71,0,0,0,69.8,66.75a14.26,14.26,0,0,0,3.66-9.55V39.75A14.35,14.35,0,0,0,59.11,25.4Z"/><path class="cls-7" d="M48.85,48.88c-2.69,1.77-7.19,1.63-10.15,1.65-4.21,0-8.41-.24-12.62-.33v7A14.34,14.34,0,0,0,40.42,71.55H59.11a14.27,14.27,0,0,0,9.26-3.4A142.77,142.77,0,0,1,48.85,48.88Z"/><path class="cls-8" d="M21,24.5a5,5,0,1,0-5-5,5.05,5.05,0,0,0,5,5Z"/><path class="cls-8" d="M85,70.16a5,5,0,1,0-5-5,5.05,5.05,0,0,0,5,5Z"/><path class="cls-8" d="M18.67,81.83a5,5,0,1,0-5-5,5.06,5.06,0,0,0,5,5Z"/><path class="cls-8" d="M75.67,24.16a5,5,0,1,0-5-5,5.06,5.06,0,0,0,5,5Z"/><path class="cls-9" d="M47.67,20.16a5.06,5.06,0,0,0,5-5,5,5,0,1,0-10,0,5.08,5.08,0,0,0,5,5Z"/><path class="cls-9" d="M14,48.83a5,5,0,1,0-5-5,5.09,5.09,0,0,0,5,5Z"/><path class="cls-9" d="M81.67,47.83a5,5,0,1,0-5-5,5.06,5.06,0,0,0,5,5Z"/><path class="cls-9" d="M55.33,87.16a5,5,0,1,0-5-5,5.05,5.05,0,0,0,5,5Z"/><path class="cls-10" d="M62.33,20.83a5,5,0,1,0-5-5,5.05,5.05,0,0,0,5,5Z"/><path class="cls-10" d="M16,35.5a5,5,0,1,0-5-5,5.05,5.05,0,0,0,5,5Z"/><path class="cls-10" d="M35.67,85.83a5,5,0,1,0-5-5,5.06,5.06,0,0,0,5,5Z"/><path class="cls-10" d="M73.67,83.16a5,5,0,1,0-5-5,5.06,5.06,0,0,0,5,5Z"/><path class="cls-11" d="M14,65.16a5,5,0,1,0-5-5,5.09,5.09,0,0,0,5,5Z"/><path class="cls-11" d="M84.33,33.16a5,5,0,1,0-5-5,5.05,5.05,0,0,0,5,5Z"/></g></g></svg>