<svg xmlns="http://www.w3.org/2000/svg" viewBox="0 0 90.62 114.49"><defs><style>.cls-1{fill:#313d55;}.cls-2{fill:#252e40;}.cls-3{fill:#fff;}.cls-4{fill:#f6f6f6;}.cls-5{fill:#ededed;}.cls-6{fill:#fdf6f6;}.cls-7{fill:#ebebeb;}.cls-8{fill:#ebe6e6;}.cls-9{fill:#efebeb;}.cls-10{fill:#f3f0f0;}.cls-11{fill:#f39d99;}.cls-12{fill:#eb5c55;}</style></defs><title>Asset 7</title><g id="Layer_2" data-name="Layer 2"><g id="Objects"><path class="cls-1" d="M90.62,82.49c0,16.57-21.44,32-38,32H38c-16.57,0-38-15.43-38-32V28C0,11.43,23.43,0,40,0H50.62c16.56,0,40,11.43,40,28Z"/><path class="cls-2" d="M50.62,0c16.56,0,40,11.43,40,28V82.49c0,16.57-21.44,32-38,32"/><path class="cls-3" d="M83.81,31.44c0,13.26-17.8,24-31.11,24H37.92c-13.32,0-31.11-10.74-31.11-24h0c0-13.25,17.79-24,31.11-24H52.7c13.31,0,31.11,10.75,31.11,24Z"/><path class="cls-4" d="M32.31,14.61a5.06,5.06,0,0,0,5-5,5,5,0,1,0-10,0,5.08,5.08,0,0,0,5,5Z"/><path class="cls-4" d="M64,56.94a5,5,0,1,0-5-5,5.05,5.05,0,0,0,5,5Z"/><path class="cls-4" d="M11.31,46.61a5,5,0,0,0,0-10,5,5,0,0,0,0,10Z"/><path class="cls-4" d="M75.31,22.61a5,5,0,1,0-5-5,5.06,5.06,0,0,0,5,5Z"/><path class="cls-4" d="M21,29.94a5,5,0,1,0-5-5,5.05,5.05,0,0,0,5,5Z"/><path class="cls-4" d="M73.31,40.28a5,5,0,1,0-5-5,5.06,5.06,0,0,0,5,5Z"/><path class="cls-4" d="M37.64,51.61a5,5,0,1,0-5-5,5.05,5.05,0,0,0,5,5Z"/><path class="cls-4" d="M53.64,18.28a5.05,5.05,0,0,0,5-5,5,5,0,0,0-10,0,5.09,5.09,0,0,0,5,5Z"/><path class="cls-5" d="M9.64,40.28a5,5,0,0,0,0-10,5,5,0,0,0,0,10Z"/><path class="cls-5" d="M43,56.94a5,5,0,1,0-5-5,5.05,5.05,0,0,0,5,5Z"/><path class="cls-5" d="M74.64,46.94a5,5,0,1,0-5-5,5.05,5.05,0,0,0,5,5Z"/><path class="cls-5" d="M67.64,17.61a5.05,5.05,0,0,0,5-5,5,5,0,0,0-10,0,5.09,5.09,0,0,0,5,5Z"/><path class="cls-5" d="M43.64,20.94a5,5,0,1,0-5-5,5.05,5.05,0,0,0,5,5Z"/><path class="cls-5" d="M67.64,35.61a5,5,0,1,0-5-5,5.05,5.05,0,0,0,5,5Z"/><path class="cls-5" d="M36.64,19.61a5,5,0,1,0-5-5,5.05,5.05,0,0,0,5,5Z"/><path class="cls-5" d="M31.64,45.94a5,5,0,1,0-5-5,5.05,5.05,0,0,0,5,5Z"/><path class="cls-5" d="M59,51.28a5,5,0,1,0-5-5,5.05,5.05,0,0,0,5,5Z"/><path class="cls-5" d="M26.31,29.28a5,5,0,1,0-5-5,5.06,5.06,0,0,0,5,5Z"/><path class="cls-4" d="M18.64,18.94a5.05,5.05,0,0,0,5-5,5,5,0,1,0-10,0,5.09,5.09,0,0,0,5,5Z"/><path class="cls-4" d="M61,32.61a5,5,0,1,0-5-5,5.05,5.05,0,0,0,5,5Z"/><path class="cls-4" d="M54.64,45.61a5,5,0,1,0-5-5,5.05,5.05,0,0,0,5,5Z"/><path class="cls-4" d="M34.31,40.61a5,5,0,1,0-5-5,5.06,5.06,0,0,0,5,5Z"/><path class="cls-4" d="M32.31,26.61a5,5,0,1,0-5-5,5.06,5.06,0,0,0,5,5Z"/><path class="cls-4" d="M41.64,12.61a5.05,5.05,0,0,0,5-5,5,5,0,0,0-10,0,5.09,5.09,0,0,0,5,5Z"/><path class="cls-4" d="M23.31,46.61a5,5,0,1,0-5-5,5.06,5.06,0,0,0,5,5Z"/><path class="cls-4" d="M62,22.61a5,5,0,1,0-5-5,5.05,5.05,0,0,0,5,5Z"/><path class="cls-4" d="M14.31,24.94a5,5,0,1,0-5-5,5.06,5.06,0,0,0,5,5Z"/><path class="cls-4" d="M60.31,40.61a5,5,0,1,0-5-5,5.06,5.06,0,0,0,5,5Z"/><path class="cls-4" d="M28.64,53.94a5,5,0,1,0-5-5,5.05,5.05,0,0,0,5,5Z"/><path class="cls-4" d="M67.64,26.94a5,5,0,1,0-5-5,5.05,5.05,0,0,0,5,5Z"/><path class="cls-4" d="M31,34.28a5,5,0,1,0-5-5,5.05,5.05,0,0,0,5,5Z"/><path class="cls-4" d="M38.64,31.61a5,5,0,1,0-5-5,5.05,5.05,0,0,0,5,5Z"/><path class="cls-4" d="M59.64,14.61a5.05,5.05,0,0,0,5-5,5,5,0,0,0-10,0,5.09,5.09,0,0,0,5,5Z"/><path class="cls-6" d="M75.64,31.94a5,5,0,1,0-5-5,5.05,5.05,0,0,0,5,5Z"/><path class="cls-6" d="M26.64,39.28a5,5,0,1,0-5-5,5.05,5.05,0,0,0,5,5Z"/><path class="cls-6" d="M25.64,19.61a5,5,0,1,0-5-5,5.05,5.05,0,0,0,5,5Z"/><path class="cls-6" d="M48,13.61a5.05,5.05,0,0,0,5-5,5,5,0,0,0-10,0,5.09,5.09,0,0,0,5,5Z"/><path class="cls-6" d="M34,58.28a5,5,0,1,0-5-5,5.05,5.05,0,0,0,5,5Z"/><path class="cls-6" d="M9.31,31.94a5,5,0,0,0,0-10,5,5,0,0,0,0,10Z"/><path class="cls-6" d="M80,28.28a5,5,0,1,0-5-5,5.05,5.05,0,0,0,5,5Z"/><path class="cls-6" d="M82.31,36.61a5,5,0,1,0-5-5,5.06,5.06,0,0,0,5,5Z"/><path class="cls-6" d="M43.31,27.61a5,5,0,1,0-5-5,5.06,5.06,0,0,0,5,5Z"/><path class="cls-6" d="M50.31,23.28a5,5,0,1,0-5-5,5.06,5.06,0,0,0,5,5Z"/><path class="cls-6" d="M40.31,43.61a5,5,0,1,0-5-5,5.06,5.06,0,0,0,5,5Z"/><path class="cls-6" d="M44,50.28a5,5,0,1,0-5-5,5.05,5.05,0,0,0,5,5Z"/><path class="cls-7" d="M65.31,43.61a5,5,0,1,0-5-5,5.06,5.06,0,0,0,5,5Z"/><path class="cls-7" d="M14.64,33.61a5,5,0,1,0-5-5,5.05,5.05,0,0,0,5,5Z"/><path class="cls-7" d="M56.64,24.61a5,5,0,1,0-5-5,5.05,5.05,0,0,0,5,5Z"/><path class="cls-7" d="M22.31,52.94a5,5,0,1,0-5-5,5.06,5.06,0,0,0,5,5Z"/><path class="cls-7" d="M68,51.94a5,5,0,1,0-5-5,5.05,5.05,0,0,0,5,5Z"/><path class="cls-7" d="M80.31,42.61a5,5,0,1,0-5-5,5.06,5.06,0,0,0,5,5Z"/><path class="cls-7" d="M48,57.28a5,5,0,1,0-5-5,5.05,5.05,0,0,0,5,5Z"/><path class="cls-7" d="M55,58.28a5,5,0,1,0-5-5,5.05,5.05,0,0,0,5,5Z"/><path class="cls-7" d="M15.64,40.61a5,5,0,1,0-5-5,5.05,5.05,0,0,0,5,5Z"/><path class="cls-7" d="M22,35.28a5,5,0,1,0-5-5,5.05,5.05,0,0,0,5,5Z"/><path class="cls-7" d="M16.31,50.61a5,5,0,1,0-5-5,5.06,5.06,0,0,0,5,5Z"/><path class="cls-8" d="M51.31,29.61a5,5,0,1,0-5-5,5.06,5.06,0,0,0,5,5Z"/><path class="cls-8" d="M18.64,39.28a5,5,0,1,0-5-5,5.05,5.05,0,0,0,5,5Z"/><path class="cls-8" d="M72.31,49.61a5,5,0,1,0-5-5,5.06,5.06,0,0,0,5,5Z"/><path class="cls-8" d="M48,49.61a5,5,0,1,0-5-5,5.05,5.05,0,0,0,5,5Z"/><path class="cls-8" d="M25.64,54.61a5,5,0,1,0-5-5,5.05,5.05,0,0,0,5,5Z"/><path class="cls-9" d="M43.31,34.28a5,5,0,1,0-5-5,5.06,5.06,0,0,0,5,5Z"/><path class="cls-10" d="M49,37.61a5,5,0,1,0-5-5,5.05,5.05,0,0,0,5,5Z"/><path class="cls-10" d="M55.64,36.28a5,5,0,1,0-5-5,5.05,5.05,0,0,0,5,5Z"/><path class="cls-10" d="M46.31,42.61a5,5,0,1,0-5-5,5.06,5.06,0,0,0,5,5Z"/><path class="cls-10" d="M53.31,51.61a5,5,0,1,0-5-5,5.06,5.06,0,0,0,5,5Z"/><path class="cls-10" d="M37.31,25.94a5,5,0,1,0-5-5,5.06,5.06,0,0,0,5,5Z"/><path class="cls-11" d="M63.79,31.44C63.79,37.8,55.25,43,48.85,43H41.76c-6.39,0-14.93-5.16-14.93-11.52h0c0-6.36,8.54-11.52,14.93-11.52h7.09c6.4,0,14.94,5.16,14.94,11.52Z"/><path class="cls-12" d="M36.9,20.78c-5.16,1.71-10.07,5.84-10.07,10.66,0,2.93,1.81,5.59,4.39,7.62A24.52,24.52,0,0,1,36.9,20.78Z"/><path class="cls-12" d="M44.88,19.92H41.76q-.57,0-1.17.06c-6,5.08-8.27,12.86-7.23,20.53a18.89,18.89,0,0,0,5.73,2.17C37.52,35.23,40.09,25.69,44.88,19.92Z"/><path class="cls-12" d="M58.69,23.29a18.83,18.83,0,0,0-4.63-2.39C50.51,27.16,45.88,35.52,47.77,43h1.08a15.45,15.45,0,0,0,4.63-.78C51.79,35.49,55.28,29.08,58.69,23.29Z"/><path class="cls-12" d="M60.26,24.55c-3.08,5.2-6.22,10.92-4.88,16.91,4.5-2,8.41-5.72,8.41-10A9.55,9.55,0,0,0,60.26,24.55Z"/><path class="cls-12" d="M52.09,20.33a14.31,14.31,0,0,0-3.24-.41h-1.3a.21.21,0,0,1,0,.06c-5.16,5.13-8.15,15.48-6.32,23l.57,0h4C44.1,35.28,48.4,26.9,52.09,20.33Z"/></g></g></svg>